<?xml version="1.0" encoding="UTF-8" standalone="no"?>
<!-- Created with Inkscape (http://www.inkscape.org/) -->

<svg
   width="120.21966mm"
   height="137.18265mm"
   viewBox="0 0 120.21966 137.18265"
   version="1.1"
   id="svg1"
   xmlns="http://www.w3.org/2000/svg"
   xmlns:svg="http://www.w3.org/2000/svg">
  <defs
     id="defs1" />
  <g
     id="layer2"
     style="display:inline;fill:#ff8080"
     transform="translate(-41.273841,-52.134478)">
    <path
       style="fill:#ff8080;fill-opacity:1;stroke:#ff8080;stroke-width:4.23333;stroke-linecap:round;stroke-linejoin:round;stroke-dasharray:none;stroke-opacity:1"
       id="path96"
       d="M 85.92502,92.856057 C 85.256072,82.736418 82.644545,72.10276 75.624096,64.658203 72.855253,61.754418 69.242705,59.990412 65.825779,58.069796 62.193117,56.150411 58.085221,55.02753 53.997213,55.568562 c -3.618942,0.163622 -7.340864,1.393194 -10.023027,3.990022 -1.97168,2.97709 1.491368,5.160777 3.513249,6.561529 2.717371,3.004978 2.493498,8.179948 6.205042,10.312895 4.642904,1.898626 10.041769,1.749307 14.157765,4.999366 2.155995,1.582726 4.569336,2.839479 6.496084,4.789682 1.909104,1.252011 4.109378,4.353967 6.475337,3.359202 2.116397,-1.818399 0.998067,-4.950986 -0.09626,-7.046497 -1.108292,-2.230445 -2.106235,-4.523067 -2.971065,-6.85848 C 75.031364,70.370264 71.067616,65.63954 66.007671,62.635618 61.686018,61.696719 57.50032,58.624267 52.939486,60.051011 c -3.061114,0.895974 -1.668584,5.226029 0.416088,6.507522 2.494147,2.234922 5.440313,3.948499 7.526744,6.64482 3.753235,3.457208 9.544956,7.632279 13.862364,10.311918 1.87103,-2.493912 -1.459612,-6.73622 -3.254883,-8.810555 -2.048257,-2.646805 -3.69977,-5.770449 -6.606789,-7.529089 -1.420965,-1.000747 -2.988183,-1.847497 -4.696672,-2.147938 -2.210961,1.650592 2.191745,3.002797 2.988453,4.418725 2.960694,2.729422 6.103434,5.578982 7.595492,9.496936 -0.159279,1.919576 -2.574914,-0.883013 -3.423678,-1.303226 -2.966338,-2.520535 -5.425518,-5.700303 -8.796512,-7.685308 -1.941587,-1.499101 -2.536811,-3.371985 -2.025551,-6.001634 1.170511,-2.267296 2.833769,-1.997465 4.700489,-1.339642 5.342612,1.682343 10.586703,5.135536 12.828339,10.661785 2.332326,4.721227 4.895944,9.64904 4.899095,15.099317 -8.517165,-6.860031 -19.271628,-10.54434 -26.590647,-19.0212 -2.492376,-2.593434 -5.016359,-5.297642 -8.23596,-6.912574 -1.215228,-0.41375 3.947125,0.702556 4.340879,0.07889 3.504914,-1.643018 5.176198,-5.092232 9.15613,-4.977565 9.032834,-0.794543 17.65526,5.830057 20.708656,14.485159 2.670547,5.845538 3.837782,12.266687 4.726232,18.625728 0.590858,1.128746 1.725406,1.815293 2.867269,2.202975 z" />
    <path
       style="fill:#ff8080;fill-opacity:1;stroke:#ff8080;stroke-width:4.23333;stroke-linecap:round;stroke-linejoin:round;stroke-dasharray:none;stroke-opacity:1"
       id="path97"
       d="m 107.51068,87.267749 c 3.20311,-12.144378 14.651,-22.551112 26.25379,-26.657183 5.51688,-1.841634 11.19383,-3.500595 17.01569,-3.875283 2.74513,0.144783 5.24631,3.258129 3.81044,5.899221 -1.434,4.026849 -4.69877,6.969585 -7.44861,10.09604 -8.04807,7.966333 -18.73782,13.157997 -29.93127,14.652882 -2.91086,1.787041 -6.54196,-2.858583 -4.14106,-5.282453 5.97623,-6.881012 11.91344,-14.108409 19.72517,-18.966448 3.88051,-2.047109 7.3644,-1.257277 11.70923,-0.475945 2.20687,2.383144 -0.22844,2.904205 -1.85489,4.343136 -5.20008,4.963012 -11.14568,9.07712 -17.43365,12.520263 -0.9142,0.701293 -3.71384,2.097614 -1.8047,0.123967 4.29216,-5.529688 9.90539,-10.396999 16.75165,-12.297841 3.072,-1.326299 -1.0464,-5.305556 -2.58795,-2.453344 -6.97627,2.947875 -12.7011,8.109446 -18.2816,13.101588 -1.68636,1.536491 -5.20985,5.582441 -2.0592,6.730383 3.00016,0.789592 6.92309,-1.644007 9.67704,-2.416276 7.40003,-2.959337 14.58354,-7.159372 19.48591,-13.612579 1.69584,-1.800858 4.86212,-4.421491 4.78691,-7.219213 -0.75205,-3.19697 -4.98998,-2.111129 -7.56792,-2.306527 -4.48138,-0.756022 -9.53746,-0.974028 -13.38209,1.882821 -8.80268,5.226677 -15.17868,13.46403 -21.53653,21.308309 -1.71454,3.018507 1.3329,6.972426 4.60999,6.687749 11.52731,1.408758 22.79967,-3.566628 31.95362,-10.229551 5.2635,-3.940386 9.76011,-9.004719 12.69132,-14.928951 1.27342,-5.02051 -3.7879,-9.728465 -8.63766,-9.370512 -5.14266,-0.142047 -9.936,2.050259 -14.90544,3.01804 -10.31988,3.155964 -20.01835,9.757543 -25.15719,19.48826 -1.66432,2.330619 -5.52477,5.902066 -5.31718,8.99154 0.26893,1.40556 2.34215,2.019899 3.57618,1.247907 z" />
    <path
       style="fill:#ff8080;fill-opacity:1;stroke:#ff8080;stroke-width:4.23333;stroke-linecap:round;stroke-linejoin:round;stroke-dasharray:none;stroke-opacity:1"
       id="path98"
       d="m 70.338439,169.58125 c -2.167396,-5.28261 -1.750919,-11.3128 -4.080182,-16.54033 -3.703608,-3.86482 -10.26231,-5.68248 -14.668383,-2.07693 -2.902472,2.82061 -2.002954,7.38678 -0.486428,10.70949 3.648423,8.03067 9.899448,15.00678 17.833882,18.39747 3.601072,-0.0271 2.77701,-4.9245 1.686148,-7.17705 -1.738411,-5.7898 -2.839673,-12.2531 -7.314484,-16.54675 -1.084292,-2.31825 -6.58291,-3.998 -6.027372,-0.0314 0.788373,2.74289 1.400574,5.51937 2.022369,8.30925 0.8445,3.10288 2.237868,6.99253 4.864841,8.9096 3.940727,1.15544 2.273464,-4.21955 0.992322,-6.24189 -1.46339,-3.42872 -3.78649,-6.64707 -7.093365,-8.27894 -1.389799,-3.12362 -5.666063,0.26383 -3.390016,2.72706 1.289376,2.41179 4.830144,1.24002 2.656128,-1.41075 0.616756,-1.96896 2.939812,2.30827 3.729267,3.34581 1.405616,2.39379 2.313119,5.1242 2.533362,7.93147 0.783173,1.83891 2.435509,0.25692 0.692331,-0.81629 -1.895471,-3.78003 -3.855503,-8.15203 -2.759178,-12.50466 -0.02269,-3.17498 2.804621,1.94318 3.174167,3.26661 1.530789,4.77797 2.912646,9.61556 3.960909,14.54014 -1.28168,3.58875 -5.090125,0.33973 -6.434243,-1.5063 -4.603579,-4.54502 -8.444721,-10.36649 -9.48989,-17.01522 -0.153738,-4.82668 5.458797,-7.72511 9.425409,-6.06978 1.401392,0.49882 1.61366,-0.15282 1.244816,1.16043 2.309238,4.73034 1.921835,10.33313 3.641441,15.29989 1.095376,0.53968 2.190812,1.07923 3.286149,1.61899 z" />
    <path
       style="fill:#ff8080;fill-opacity:1;stroke:#ff8080;stroke-width:3.52777;stroke-linecap:round;stroke-linejoin:round;stroke-dasharray:none;stroke-opacity:1"
       id="path99"
       d="m 114.2658,185.16069 c 3.85426,-9.10208 5.39608,-20.24003 0.62838,-29.27083 -4.41953,-5.53998 -12.7954,-1.87832 -14.82782,4.00409 -3.345323,6.68901 -2.897791,14.68404 -1.117206,21.74253 1.047548,5.52521 9.102736,8.82389 11.360146,2.37164 4.06918,-5.85408 5.09281,-13.40671 3.01868,-20.19494 0.31201,-5.46451 -8.16046,-10.00283 -9.27365,-2.82354 -0.61295,7.14372 -2.4851,14.53325 -0.19624,21.58226 5.2864,4.51379 7.31814,-5.27048 7.0068,-9.1253 1.27921,-2.77755 0.0377,-11.59396 -3.13948,-8.44752 0.98054,6.17064 -1.70099,12.8282 -2.21322,18.11435 3.48737,0.47394 -0.89675,-5.46142 0.55151,-7.77743 -0.39072,-5.72016 1.93037,-13.08389 2.6946,-16.92497 3.55223,8.11302 3.26865,18.40792 -2.85607,25.25225 -2.31678,1.43586 -2.24636,3.71684 -3.24048,0.10511 -2.871939,-7.26618 -2.48889,-15.96562 1.10069,-22.89994 0.9717,-3.78166 7.64407,-6.0268 8.78784,-5.67102 0.38814,3.31316 2.70254,8.77629 1.95655,13.26146 0.72851,5.31631 -2.73523,10.51774 -2.94798,15.27721 0.776,0.72315 1.89742,0.75725 2.70695,1.42459 z" />
    <path
       style="fill:#ff8080;fill-opacity:1;stroke:#ff8080;stroke-width:4.23333;stroke-linecap:round;stroke-linejoin:round;stroke-dasharray:none;stroke-opacity:1"
       id="path100"
       d="m 78.507327,177.46595 c -5.753542,-6.55381 1.977153,-13.90109 2.169445,-20.17556 0.388887,-5.91575 9.225567,-9.63586 10.957453,-13.45026 -1.015438,5.37568 -12.451103,10.19924 -9.079449,16.48999 5.697459,4.10717 9.204399,-5.65588 12.339008,-9.07574 0.709817,-3.40056 12.088016,-7.61095 5.121196,-5.7617 -0.731995,4.69019 -6.751906,9.56849 -3.981395,13.79672 6.963025,2.51428 8.185255,-6.97212 13.202965,-9.37257 4.22469,-2.92772 5.57002,-12.78974 10.15852,-4.39923 5.29878,4.16997 6.85094,8.25815 5.60812,14.718 -0.71227,6.11653 4.39832,12.37869 0.94632,18.10896 -1.24697,1.03041 -7.56533,4.35379 -5.00384,3.61058 -2.06154,-6.98288 1.52153,-14.58415 -2.0871,-21.34045 -2.98251,-5.31801 -6.4369,-16.94925 1.0189,-18.18329 5.24851,5.18934 0.0508,11.87006 0.49831,17.75389 2.02446,5.99283 -1.15996,13.23029 1.25139,18.25813 1.15131,-3.92751 -0.9658,-10.4701 -0.70595,-15.52004 -0.98447,-3.93428 1.95938,-14.98243 -3.59895,-14.18266 0.2023,6.59747 1.06435,14.02748 0.84214,20.74686 -1.09179,4.04738 2.03328,13.55421 6.42361,7.03191 0.87138,-7.87856 -2.78296,-16.35548 1.07605,-23.89928 1.83657,-5.93986 -5.26271,-15.40476 -11.53035,-11.40043 -5.43385,6.0333 0.288,13.61048 1.9402,19.91688 3.30103,6.95283 -1.26175,15.07914 1.80162,21.91339 3.25979,3.3082 10.87477,-2.04364 13.11037,-6.35435 -1.93281,-7.52712 -1.59594,-11.1567 -0.59837,-19.01031 -5.26128,-4.55816 -10.21763,-16.75831 -17.80119,-17.85481 -7.76964,1.16475 -7.80839,10.65757 -13.12151,14.8137 -3.021045,2.47918 -12.367891,6.90373 -2.667716,6.45385 2.857036,-3.87745 9.336786,-13.08161 2.644072,-16.27986 -7.370295,-1.93736 -8.351671,8.1221 -13.128602,11.55209 -2.247827,0.99151 -2.617111,7.60403 0.233187,4.6231 -0.81675,-5.9261 10.167329,-12.74866 2.735425,-18.02678 -5.573035,-0.0981 -11.391569,5.2914 -12.886836,10.51989 -1.117971,7.02117 -7.971603,14.48119 -3.097577,21.44521 1.013007,1.21804 3.646332,2.20832 5.210534,2.53417 z" />
    <path
       style="fill:#ff8080;fill-opacity:1;stroke:#ff8080;stroke-width:4.23333;stroke-linecap:round;stroke-linejoin:round;stroke-dasharray:none;stroke-opacity:1"
       id="path101"
       d="m 95.189548,89.516265 c -16.196221,3.678399 -36.777147,13.218305 -32.212121,32.689215 6.298499,19.85223 34.047506,21.77559 50.938263,18.54793 16.59303,-4.82753 24.40593,-27.87357 10.89893,-39.96979 -16.99799,-16.694709 -53.861986,-9.548372 -57.05848,16.20245 -3.949401,22.62666 22.34617,23.53194 38.07855,23.58084 20.1323,2.51796 29.48416,-25.90301 15.08158,-38.10894 -14.31015,-11.560357 -39.011257,-8.582607 -49.050399,7.00568 -8.262338,21.50542 19.810684,35.70634 37.355329,27.29349 16.91031,-3.43467 20.64797,-28.55736 3.49363,-34.08533 -12.932364,-6.377126 -33.992937,-1.29656 -36.255359,14.63802 1.217578,18.83063 32.621529,27.14978 40.424799,8.4784 11.03585,-17.17454 -17.086342,-33.486572 -28.952642,-18.73333 -19.070178,13.71177 14.049262,38.15799 22.600132,16.84273 8.9383,-22.26447 -34.534071,-19.80513 -19.644488,0.62294 14.401478,9.40488 20.109418,-20.56128 4.645346,-12.54546 -8.016023,10.73003 16.454012,0.34278 3.025995,9.74976 -17.572704,4.67557 -1.221575,-22.514154 7.496927,-8.2679 10.17246,16.79072 -23.44714,23.16789 -20.555551,3.21924 3.557118,-17.909294 34.286431,-14.96507 28.565521,4.79536 -3.39641,22.61074 -42.829086,12.89608 -32.656182,-8.64559 7.772372,-16.669135 42.750752,-14.117652 39.461132,7.42737 -5.46197,17.85618 -36.218287,23.36292 -45.176273,5.89918 -9.11717,-19.04401 14.887991,-30.493485 30.673073,-27.975864 20.82062,-1.588421 24.09067,28.785814 8.59714,37.861864 -14.28937,4.56815 -43.810529,6.26994 -44.318201,-14.79219 0.223909,-25.659021 38.675011,-37.29965 54.162321,-17.97382 9.21889,14.39962 0.11617,39.61321 -19.29662,36.82851 -13.3214,-1.17747 -35.782519,1.91918 -38.681835,-15.72532 -1.702386,-13.24253 5.571005,-29.702854 20.735995,-29.757932 3.429944,-0.842139 15.44923,-5.658964 7.623488,-5.101513 z" />
    <path
       style="fill:#ffeeaa;fill-opacity:1;stroke:#ffeeaa;stroke-width:4.23333;stroke-linecap:round;stroke-linejoin:round;stroke-dasharray:none;stroke-opacity:1"
       id="path102"
       d="m 93.609704,166.59452 c -0.894331,-0.48082 -1.815293,-0.91105 -2.749587,-1.30782 -0.816284,-0.34761 -1.63807,-0.69343 -2.502297,-0.90502 -0.509383,-0.12472 -0.750541,-0.15151 -1.265962,-0.23235 -1.263378,-0.21584 -2.5185,-0.004 -3.75139,0.27665 -0.593928,0.17615 -1.233543,0.24023 -1.814552,0.46259 -0.238646,0.0913 -0.409932,0.20958 -0.626171,0.34174 -0.745109,0.46446 -1.093599,1.24822 -1.390525,2.03843 -0.128982,0.45777 -0.303363,0.94867 -0.218255,1.43265 0.04252,0.24179 0.101185,0.31301 0.213032,0.52103 0.913712,1.17716 3.088436,1.92352 3.936124,2.36343 0.115528,0.0599 0.932516,0.0455 1.079508,0.0431 0.855432,-0.014 1.623356,-0.35629 2.3934,-0.68764 0.657622,-0.28748 1.272455,-0.65685 1.944113,-0.91339 0.616394,-0.26189 1.289238,-0.30259 1.949331,-0.33906 0.679021,0.002 1.346533,0.18393 1.984819,0.40302 1.148909,0.66763 3.006789,1.65928 -2.31717,-1.3256 -0.114774,-0.0643 0.220348,0.14409 0.326575,0.22173 0.240604,0.17587 0.278635,0.22192 0.486497,0.41565 0.07342,0.10868 0.312632,0.26897 0.2833,0.43671 -0.02983,0.1706 -0.281376,0.27372 -0.404997,0.34016 -0.811335,0.3386 -1.711227,0.41844 -2.577098,0.52746 -1.01692,0.13079 -2.039657,0.13367 -3.062274,0.11442 -0.914257,0.0187 -1.843524,-0.0238 -2.746687,0.15299 -0.150146,0.0294 -0.296788,0.0745 -0.445183,0.11173 -0.567332,0.22045 -1.278154,0.45616 -1.684493,0.93989 -0.05812,0.0692 -0.09954,0.15085 -0.149307,0.22627 -0.130395,0.29893 -0.243512,0.69101 -0.05412,0.99567 0.04751,0.0764 0.116705,0.13701 0.175057,0.20551 1.356336,1.03828 0.427153,0.34503 3.88988,2.30817 0.194585,0.11031 0.59187,0.2435 0.799899,0.30187 0.386225,0.10836 0.550412,0.12495 0.948362,0.19213 0.17998,0.004 0.360156,0.0228 0.539945,0.0133 1.112444,-0.0585 2.236552,-0.45223 3.275894,-0.82446 0.767593,-0.23802 1.504804,-0.67373 2.31498,-0.76856 0.113699,-0.0133 0.228923,-0.004 0.343384,-0.005 0.297196,0.0563 0.37043,0.0502 0.646739,0.1833 0.109101,0.0526 0.419423,0.24236 0.313796,0.18312 -0.988282,-0.55425 -1.951767,-1.15461 -2.961796,-1.66816 -0.140237,-0.0713 0.236323,0.20994 0.334934,0.33252 0.104182,0.12952 0.179906,0.27955 0.269856,0.41932 0.228986,0.44602 0.379267,0.92617 0.465392,1.4194 0.03547,0.20316 0.08942,0.4907 0.0039,0.70036 -0.03296,0.0808 -0.105966,0.13873 -0.158949,0.2081 -0.101732,0.0528 -0.196244,0.12285 -0.305196,0.15848 -0.565746,0.18504 -1.226143,0.13659 -1.807779,0.11947 -0.909124,-0.0268 -0.767707,-0.0286 -1.697437,-0.11339 -1.787631,-0.2151 -3.573743,-0.43912 -5.367055,-0.60293 -0.561747,-0.0334 -1.129336,-0.0522 -1.691333,-0.006 -0.269838,0.0222 -0.440549,0.0289 -0.661175,0.20053 -0.09215,0.0717 -0.155413,0.17427 -0.233122,0.2614 -0.297283,0.58334 -0.403076,1.31572 -0.348832,1.96745 0.01169,0.14059 0.04455,0.27863 0.06683,0.41794 0.199043,0.59349 0.617693,1.08055 1.158602,1.39742 3.563649,2.08762 2.364647,1.63614 4.087794,2.24454 1.034095,0.26076 2.101334,0.32739 3.15808,0.43902 1.09307,0.0762 2.171276,0.25653 3.230602,0.53224 0.744567,0.16026 1.413317,0.46709 2.098508,0.7856 0.09688,0.0464 0.194845,0.0905 0.290642,0.13908 1.781104,0.90282 -4.228819,-2.50482 -2.484038,-1.42521 0.0968,0.0599 0.190535,0.12478 0.288875,0.1821 1.192197,0.69487 2.388365,1.38291 3.582548,2.07436 0.231394,0.11643 0.466985,0.2231 0.701019,0.33353 0.05283,0.0249 0.09819,0.0915 0.155591,0.0806 0.231995,-0.0438 0.245454,-0.37683 0.285459,-0.52058 -0.304395,-0.76934 -0.705779,-1.51022 -1.186754,-2.18445 -0.298553,-0.41851 -0.498687,-0.63156 -0.829495,-1.01199 -1.297186,-1.30003 -2.914002,-2.48167 -4.721736,-2.88564 -0.320463,-0.0716 -0.526603,-0.0747 -0.855718,-0.0997 -0.951153,-0.0132 -1.897171,0.0734 -2.843509,0.15316 0,0 3.132241,2.22899 3.132241,2.22899 v 0 c 0.921165,-0.10469 1.85089,-0.18917 2.777315,-0.0976 0.333539,0.0559 0.504143,0.0675 0.818253,0.18261 0.119531,0.0438 0.456584,0.22388 0.34775,0.15785 -0.963678,-0.58467 -1.942891,-1.14335 -2.914338,-1.71502 0.128429,0.0881 0.262507,0.16849 0.385284,0.26431 0.143928,0.11233 0.275693,0.23943 0.413541,0.35914 0.322043,0.336 0.596389,0.60569 0.883854,0.97627 0.452792,0.5837 0.792813,1.24402 1.051462,1.93402 0.07197,-0.0513 0.231069,-0.12217 0.180224,-0.19445 -0.02969,-0.0422 -0.09497,-0.0405 -0.141648,-0.0624 -0.22072,-0.10395 -0.437586,-0.21687 -0.650449,-0.33597 1.011111,0.58648 2.020875,1.17529 3.033334,1.75944 0.09734,0.0562 -0.193333,-0.11472 -0.287906,-0.17543 -0.09341,-0.06 -0.179962,-0.13064 -0.275892,-0.18648 -1.394846,-0.81199 -2.707645,-1.68697 -4.167026,-2.33575 -0.678899,-0.29814 -1.371287,-0.54634 -2.100267,-0.69533 -1.058802,-0.23417 -2.133127,-0.36871 -3.213505,-0.45841 -1.059326,-0.11706 -2.137833,-0.21038 -3.150579,-0.56279 -1.410634,-0.63005 -0.471125,-0.22764 2.478484,1.50697 0.130686,0.0769 -0.267745,-0.14314 -0.394673,-0.22605 -0.25209,-0.16466 -0.465799,-0.33458 -0.655418,-0.56961 -0.07924,-0.0982 -0.137824,-0.21143 -0.206738,-0.31714 -0.03356,-0.11963 -0.08003,-0.23636 -0.100695,-0.35887 -0.08801,-0.52162 0.01294,-1.19641 0.244181,-1.67137 0.04961,-0.0452 0.09062,-0.10224 0.148829,-0.13567 0.13899,-0.0798 0.386892,-0.10706 0.531759,-0.12222 0.5197,-0.0544 1.044377,-0.0515 1.56537,-0.0212 1.77904,0.12438 3.546232,0.34691 5.315297,0.56869 0.763294,0.0675 1.002223,0.10007 1.75855,0.12315 0.659768,0.0201 1.416307,0.0655 2.036456,-0.2178 0.150828,-0.0689 0.275003,-0.18535 0.412504,-0.27802 0.08064,-0.12042 0.187484,-0.22694 0.241935,-0.36125 0.116348,-0.28699 0.06142,-0.56135 0.01228,-0.85236 -0.08814,-0.52179 -0.229541,-1.03564 -0.424277,-1.5276 -0.0537,-0.10838 -0.376807,-0.80515 -0.50223,-0.88767 -1.171652,-0.77087 -2.403676,-1.44624 -3.620894,-2.14294 -0.184888,-0.10583 -0.508095,-0.18267 -0.719564,-0.20289 -0.122846,-0.0117 -0.246798,-0.002 -0.370197,-0.003 -0.122285,0.0199 -0.245933,0.0327 -0.36686,0.0596 -0.785974,0.1751 -1.481717,0.60711 -2.238735,0.86554 -1.206754,0.41959 -2.469444,0.81375 -3.760364,0.60277 -0.463878,-0.10645 -0.905375,-0.22154 -1.338009,-0.42545 -0.126807,-0.0598 -0.492778,-0.26734 -0.372049,-0.19609 0.904632,0.53393 4.15989,2.42578 2.723695,1.58507 -0.355513,-0.2078 -0.478906,-0.26477 -0.356124,-0.70666 0.02768,-0.0517 0.0472,-0.10865 0.08305,-0.15505 0.328427,-0.42514 1.027091,-0.64026 1.512927,-0.7988 1.019479,-0.22121 2.058275,-0.24929 3.099017,-0.21207 1.038389,0.0301 2.075632,-0.0114 3.105655,-0.1561 0.460094,-0.0645 0.599083,-0.0825 1.060722,-0.15347 0.577604,-0.0888 1.171755,-0.1616 1.690667,-0.45071 0.383754,-0.25978 0.854564,-0.64966 0.597553,-1.17717 -0.04057,-0.0833 -0.109222,-0.14966 -0.163835,-0.2245 -0.242398,-0.2627 -0.505322,-0.54838 -0.815173,-0.73401 -1.284087,-0.7693 -2.800697,-1.83165 -4.317588,-2.4263 -0.673089,-0.18718 -1.354579,-0.34928 -2.059498,-0.28263 -0.697748,0.053 -1.401254,0.12938 -2.043924,0.42809 -0.648142,0.29165 -1.25666,0.66055 -1.911215,0.93845 -0.741966,0.31008 -1.487715,0.59073 -2.308712,0.54798 -0.303117,-0.0194 -0.448924,-0.0159 -0.745128,-0.0854 -0.100965,-0.0237 -0.384942,-0.14854 -0.296447,-0.0945 1.026496,0.62725 2.083999,1.20244 3.117406,1.81823 0.06709,0.04 -0.147709,-0.0526 -0.216496,-0.0896 -0.06822,-0.0367 -0.128283,-0.0869 -0.192426,-0.1303 -0.0972,-0.10773 -0.230084,-0.23961 -0.294934,-0.37295 -0.195058,-0.40106 -0.01156,-0.87696 0.06761,-1.28144 0.263231,-0.71784 0.592693,-1.40167 1.288659,-1.78904 0.714245,-0.38466 1.507225,-0.57118 2.290063,-0.76769 1.216626,-0.27369 2.41935,-0.39272 3.657278,-0.16377 0.541139,0.0987 0.69865,0.11485 1.232786,0.26365 0.847045,0.23598 1.655493,0.58814 2.462371,0.93247 0.993889,0.44594 1.968778,0.92926 2.916854,1.46642 z" />
    <path
       style="fill:#ffeeaa;fill-opacity:1;stroke:#ffeeaa;stroke-width:4.23333;stroke-linecap:round;stroke-linejoin:round;stroke-dasharray:none;stroke-opacity:1"
       id="path103"
       d="m 133.71645,166.38032 c -0.39533,2.1106 -0.3935,3.66598 0.46244,5.75598 0.45529,1.45869 0.58031,2.28582 0.85943,4.38869 -0.91425,3.94698 2.30911,3.68737 4.02536,3.53919 1.63885,-0.47908 3.2673,-2.4157 4.73904,-3.2268 1.27345,-0.92026 1.99028,-2.57047 1.64835,-4.12483 -0.26696,-1.96208 -0.977,-3.95875 -2.35941,-5.41273 -1.27074,-1.24377 -3.24849,-2.49519 -4.91537,-3.07493 -1.63934,-0.3497 -3.05826,1.39062 -3.07863,3.09016 -0.20958,1.95998 0.51599,3.85464 1.14853,5.67058 0.72276,1.34402 2.2354,1.90351 3.41585,2.74899 0.99214,0.50617 2.23589,-0.27801 2.14738,-1.40387 0.13664,-1.17445 -0.14492,-2.35399 0.002,-3.52802 -0.25797,-1.24613 -1.60236,-1.70244 -2.64932,-2.10421 -1.02256,0.0499 -0.62718,1.45537 -0.38883,2.08202 0.38915,1.00063 -0.46392,1.82719 -0.43437,2.7962 -0.19466,0.63481 0.94218,1.87254 1.29389,1.16547 -0.54279,-1.39386 -1.22543,-2.78301 -1.29312,-4.31071 -0.43036,-1.51405 0.49418,-3.51339 2.18725,-3.65161 0.3272,0.028 1.45686,0.23258 0.60662,-0.15683 -0.42795,-0.10903 -1.36456,-0.9608 -1.47207,-0.72333 1.85443,1.65302 2.68914,4.26126 2.4924,6.69786 -0.3492,1.58638 -1.87647,2.42297 -3.13413,3.22824 -0.76732,0.53867 -1.58769,1.08462 -2.54066,1.19881 -0.60874,0.75456 0.99536,1.53585 1.58653,1.28059 -0.12001,-0.88887 -0.74014,-1.69617 -0.91631,-2.61123 -0.45967,-1.55811 -0.78037,-3.19506 -0.69089,-4.82312 0.1885,-1.0239 0.90464,-2.32198 -0.14164,-3.13231 -0.75793,-0.66799 -1.83675,-0.6776 -2.60022,-1.35825 z" />
  </g>
  <g
     id="layer1"
     transform="translate(-41.273841,-52.134478)">
    <path
       style="fill:none;stroke:#000000;stroke-width:2.82222;stroke-linecap:round;stroke-linejoin:round;stroke-dasharray:none"
       d="m 129.37222,108.16667 c -7.26999,-24.839744 -47.032026,-23.049315 -59.46111,-6.72223 -10.139152,13.67289 -12.333573,28.53157 4.644445,36.66667 17.872405,7.20948 66.174985,8.86474 54.816665,-29.94444 z"
       id="path32" />
    <path
       style="fill:none;stroke:#000000;stroke-width:2.82223;stroke-linecap:round;stroke-linejoin:round;stroke-dasharray:none;stroke-opacity:1"
       d="m 86.044444,141.04444 c -5.351236,6.08346 -10.986982,12.1578 -13.444445,20.04445 -2.351329,8.15755 -2.347447,13.6303 1.955556,17.35555 6.425475,5.08809 14.792386,6.57618 22.733333,7.51667 5.319802,0.38233 8.715722,0.8479 15.094442,0.42778 4.39221,-0.28928 9.28848,-0.97892 13.75,-4.03334 7.58188,-5.19066 5.54231,-18.0247 4.09879,-22.9926 -1.61465,-5.55684 -4.63914,-12.57567 -10.27102,-19.6935"
       id="path33" />
    <path
       style="fill:none;stroke:#000000;stroke-width:2.82223;stroke-linecap:round;stroke-linejoin:round;stroke-dasharray:none;stroke-opacity:1"
       d="m 131.75555,166.77222 c 1.66518,-1.92831 7.11513,-4.85512 11.46051,-0.37715 2.44175,2.51625 4.4955,7.99856 -0.0839,12.36541 -2.45916,2.34502 -10.18229,3.24625 -12.70163,-1.66763"
       id="path34" />
    <path
       style="fill:none;stroke:#000000;stroke-width:2.82223;stroke-linecap:round;stroke-linejoin:round;stroke-dasharray:none;stroke-opacity:1"
       d="m 99.733482,185.6391 c -3.345807,-5.21875 -3.837816,-12.69012 -2.728989,-18.6087 1.275123,-6.37546 4.712257,-13.59412 10.348557,-13.93564 6.1156,-0.37056 9.12197,9.14305 9.55591,13.27935 0.74837,7.13352 0.18109,12.33457 -3.90939,19.74032"
       id="path35" />
    <path
       style="fill:none;stroke:#000000;stroke-width:2.82223;stroke-linecap:round;stroke-linejoin:round;stroke-dasharray:none;stroke-opacity:1"
       d="m 71.386358,164.8973 c -1.384322,-5.37839 -4.105051,-9.40609 -7.605326,-13.13647 -3.179677,-3.27431 -8.215791,-5.18391 -11.294885,-2.62256 -6.439405,5.35662 -0.48531,31.25014 24.807497,31.38855"
       id="path36" />
    <path
       style="fill:#000000;fill-opacity:1;stroke:#000000;stroke-width:2.82222;stroke-linecap:round;stroke-linejoin:round;stroke-dasharray:none"
       d="m 63.329607,118.69792 c -0.637873,-0.46748 -1.777049,-0.58143 -2.468466,-0.66331 -2.105989,-0.25568 -2.860746,1.73364 -3.579275,3.31657 -0.336642,0.87719 -0.06413,1.89916 0.431982,2.65325 0.222125,0.48971 0.705865,0.78103 1.172521,1.02512 0.924495,0.36135 2.51511,0.46532 3.455851,0.1206 0.430652,-0.1578 0.719968,-0.49446 1.049099,-0.78391 0.377865,-0.33231 0.856811,-0.69567 0.987386,-1.20603 0.103182,-0.40329 0.123791,-1.74622 0.06172,-2.17085 -0.342905,-0.7692 -0.483727,-1.69255 -1.110813,-2.29144 z"
       id="path47" />
    <path
       style="fill:#000000;fill-opacity:1;stroke:#000000;stroke-width:2.82223;stroke-linecap:round;stroke-linejoin:round;stroke-dasharray:none"
       d="m 95.470018,119.11127 c -0.124728,-0.0312 -0.342998,-0.21826 -0.37418,-0.0935 -0.03118,0.12473 0.502743,0.0935 0.37418,0.0935 -0.34021,0 -1.196195,-0.25116 -1.590255,-0.0935 -0.104386,0.0417 -0.176247,0.14534 -0.280633,0.18709 -0.688321,0.27533 -1.51008,0.45704 -2.15152,0.8419 -0.203999,0.1224 -1.033484,1.13152 -1.122532,1.30962 -0.08819,0.17639 -0.111239,0.37923 -0.187089,0.56127 -0.08045,0.19308 -0.209148,0.36468 -0.280633,0.56126 -0.21599,0.59398 -0.102375,1.47021 0.09355,2.05798 0.233799,0.7014 1.569421,1.78016 2.245063,1.96443 0.792142,0.21604 1.708944,0.25515 2.525697,0.18709 0.324959,-0.0271 1.824424,-0.53816 2.057974,-0.74836 0.700384,-0.63034 1.801985,-2.78899 1.590254,-3.74177 -0.03025,-0.13613 -0.142991,-0.24189 -0.187086,-0.37418 -0.05028,-0.15084 -0.03772,-0.31885 -0.09355,-0.46772 -0.133919,-0.35712 -0.49498,-0.91438 -0.841899,-1.12253 -0.08455,-0.0507 -0.20175,-0.0344 -0.280633,-0.0935 -0.05578,-0.0418 -0.03776,-0.14525 -0.09354,-0.18709 -0.07888,-0.0592 -0.19608,-0.0428 -0.280633,-0.0935 -0.801722,-0.48103 0.427543,0.10685 -0.374179,-0.37418 -0.239149,-0.14349 -0.498901,-0.24945 -0.748352,-0.37418 z"
       id="path48" />
    <path
       style="fill:none;fill-opacity:1;stroke:#000000;stroke-width:2.82222;stroke-linecap:round;stroke-linejoin:round;stroke-dasharray:none;stroke-opacity:1"
       d="m 79.419139,180.16639 c -1.558418,-5.28005 -2.267413,-12.48637 2.245064,-16.46381 2.190382,-1.90526 4.930212,-1.98985 7.670636,-1.6838 2.579822,0.14471 5.936431,1.72087 8.090207,3.15976"
       id="path49" />
    <path
       style="fill:none;fill-opacity:1;stroke:#000000;stroke-width:2.82222;stroke-linecap:round;stroke-linejoin:round;stroke-dasharray:none"
       d="M 87.890401,89.33637 C 85.484018,80.273546 82.612382,70.596065 69.830534,59.783428 60.008295,51.474434 31.473621,48.595896 47.546287,69.806925 c 8.233789,9.414555 23.79492,16.651814 32.357517,22.939667"
       id="path70" />
    <path
       style="fill:none;fill-opacity:1;stroke:#000000;stroke-width:2.82223;stroke-linecap:round;stroke-linejoin:round;stroke-dasharray:none"
       d="m 101.59402,88.159669 c 1.82095,-4.659652 7.45171,-12.11437 9.35395,-14.295525 11.20809,-12.851482 21.28567,-18.118898 37.51994,-19.99874 3.33688,-0.01113 10.6125,-1.296198 11.56027,4.91749 0.85007,8.512109 -8.63468,16.240652 -14.54933,20.028084 -9.80069,5.668011 -18.62548,10.04355 -30.11435,13.493751"
       id="path71" />
  </g>
</svg>
